<svg viewBox="0 0 24 24" fill="none" xmlns="http://www.w3.org/2000/svg">

	<g id="markdown" fill="#FFFFFF">
    <path id="markdown-background" d="M22.131725 19.247H1.9386225C1.0239525 19.247 0.25 18.47305 0.25 17.558375v-11.11675c0 -0.914675 0.7739525 -1.688625 1.6886225 -1.688625H22.061375c0.914675 0 1.688625 0.77395 1.688625 1.688625v11.11675c0 0.914675 -0.7036 1.688625 -1.618275 1.688625ZM1.9386225 5.87875c-0.2814375 0 -0.562875 0.281425 -0.562875 0.562875v11.11675c0 0.3518 0.2814375 0.562875 0.562875 0.562875H22.061375c0.3518 0 0.562875 -0.281425 0.562875 -0.562875v-11.11675c0 -0.3518 -0.281425 -0.562875 -0.562875 -0.562875l-20.1227525 0Z"/>
    <path id="markdown-chevron-left" d="M3.62725 15.86975V8.130225h2.2515l2.2515 2.814375 2.251475 -2.814375h2.2515V15.86975h-2.2515V11.437125L8.13025 14.2515l-2.2515 -2.814375V15.86975h-2.2515Z"/>

		<g id="Jira" fill="#2684FF" transform="scale(0.32) translate(42,22)">
			<path d="M24.664 3H12.2603C12.2603 5.99443 14.7697 8.43176 17.8527 8.43176H20.147V10.5557C20.147 13.5501 22.6565 15.9875 25.7395 15.9875V4.04457C25.7395 3.45265 25.2735 3 24.664 3Z"/>
			<path d="M18.5339 8.98877H6.13013C6.13013 11.9832 8.63956 14.4205 11.7226 14.4205H14.0169V16.5793C14.0169 19.5737 16.5264 22.0111 19.6094 22.0111V10.0333C19.6094 9.47623 19.1433 8.98877 18.5339 8.98877Z"/>
			<path d="M12.4038 15.0125H0C0 18.0069 2.50943 20.4442 5.59245 20.4442H7.88679V22.5682C7.88679 25.5626 10.3962 27.9999 13.4792 27.9999V16.057C13.4792 15.4651 12.9774 15.0125 12.4038 15.0125Z" />
		</g>

  </g>

</svg>

